<?xml version="1.0" encoding="UTF-8"?>
<!DOCTYPE svg PUBLIC "-//W3C//DTD SVG 1.1//EN" "http://www.w3.org/Graphics/SVG/1.1/DTD/svg11.dtd">
<svg version="1.1" xmlns="http://www.w3.org/2000/svg" xmlns:xlink="http://www.w3.org/1999/xlink" x="0" y="0" width="1200" height="400" viewBox="0, 0, 1200, 400">
  <g id="Background">
    <rect x="0" y="0" width="1200" height="400" fill="#000000" fill-opacity="0"/>
  </g>
  <g id="Layer_1">
    <g>
      <path d="M959.657,374.503 C876.815,374.503 809.657,307.345 809.657,224.503 C809.657,141.66 876.815,74.503 959.657,74.503 C1042.5,74.503 1109.657,141.66 1109.657,224.503 C1109.657,307.345 1042.5,374.503 959.657,374.503 z" fill="#EBEDED"/>
      <path d="M959.657,374.503 C876.815,374.503 809.657,307.345 809.657,224.503 C809.657,141.66 876.815,74.503 959.657,74.503 C1042.5,74.503 1109.657,141.66 1109.657,224.503 C1109.657,307.345 1042.5,374.503 959.657,374.503 z" fill-opacity="0" stroke="#65A1CF" stroke-width="6"/>
    </g>
    <g>
      <path d="M601.408,374.5 C518.565,374.5 451.408,307.343 451.408,224.5 C451.408,141.657 518.565,74.5 601.408,74.5 C684.251,74.5 751.408,141.657 751.408,224.5 C751.408,307.343 684.251,374.5 601.408,374.5 z" fill="#EBEDED"/>
      <path d="M601.408,374.5 C518.565,374.5 451.408,307.343 451.408,224.5 C451.408,141.657 518.565,74.5 601.408,74.5 C684.251,74.5 751.408,141.657 751.408,224.5 C751.408,307.343 684.251,374.5 601.408,374.5 z" fill-opacity="0" stroke="#65A1CF" stroke-width="6"/>
    </g>
    <g>
      <path d="M241.343,374.503 C158.5,374.503 91.343,307.345 91.343,224.503 C91.343,141.66 158.5,74.503 241.343,74.503 C324.185,74.503 391.343,141.66 391.343,224.503 C391.343,307.345 324.185,374.503 241.343,374.503 z" fill="#EBEDED"/>
      <path d="M241.343,374.503 C158.5,374.503 91.343,307.345 91.343,224.503 C91.343,141.66 158.5,74.503 241.343,74.503 C324.185,74.503 391.343,141.66 391.343,224.503 C391.343,307.345 324.185,374.503 241.343,374.503 z" fill-opacity="0" stroke="#65A1CF" stroke-width="6"/>
    </g>
    <g>
      <path d="M241.328,224.503 L241.328,74.503 C314.126,74.503 376.415,126.773 389.051,198.466 C401.687,270.159 361.022,340.576 292.611,365.464 C224.199,390.352 147.793,362.527 111.408,299.474 L241.328,224.503 z" fill="#8FC7ED"/>
      <path d="M241.328,224.503 L241.328,74.503 C314.126,74.503 376.415,126.773 389.051,198.466 C401.687,270.159 361.022,340.576 292.611,365.464 C224.199,390.352 147.793,362.527 111.408,299.474 L241.328,224.503 z" fill-opacity="0" stroke="#294270" stroke-width="4"/>
    </g>
    <g>
      <path d="M601.405,224.5 L601.405,74.5 C661.275,74.5 715.412,110.103 739.131,165.075 C762.85,220.046 751.608,283.858 710.531,327.415 C669.454,370.971 606.409,385.929 550.143,365.469 L601.405,224.5 z" fill="#8FC7ED"/>
      <path d="M601.405,224.5 L601.405,74.5 C661.275,74.5 715.412,110.103 739.131,165.075 C762.85,220.046 751.608,283.858 710.531,327.415 C669.454,370.971 606.409,385.929 550.143,365.469 L601.405,224.5 z" fill-opacity="0" stroke="#294270" stroke-width="4"/>
    </g>
    <g>
      <path d="M959.657,224.503 L959.657,74.503 C977.239,74.503 994.684,77.594 1011.195,83.634 L959.657,224.503 z" fill="#8FC7ED"/>
      <path d="M959.657,224.503 L959.657,74.503 C977.239,74.503 994.684,77.594 1011.195,83.634 L959.657,224.503 z" fill-opacity="0" stroke="#294270" stroke-width="4"/>
    </g>
    <text transform="matrix(1, 0, 0, 1, 240.843, 42)">
      <tspan x="-13.77" y="18" font-family="Roboto-Bold" font-size="48" fill="#294270">2</tspan>
    </text>
    <text transform="matrix(1, 0, 0, 1, 600.908, 42)">
      <tspan x="-23.156" y="18" font-family="Roboto-Bold" font-size="48" fill="#294270">-1</tspan>
    </text>
    <text transform="matrix(1, 0, 0, 1, 959.157, 42)">
      <tspan x="-13.77" y="18" font-family="Roboto-Bold" font-size="48" fill="#294270">3</tspan>
    </text>
  </g>
</svg>
