<?xml version="1.0" encoding="UTF-8" standalone="no"?>
<svg
   xmlns:dc="http://purl.org/dc/elements/1.1/"
   xmlns:cc="http://creativecommons.org/ns#"
   xmlns:rdf="http://www.w3.org/1999/02/22-rdf-syntax-ns#"
   xmlns:svg="http://www.w3.org/2000/svg"
   xmlns="http://www.w3.org/2000/svg"
   id="svg8"
   version="1.1"
   viewBox="0 0 285.75001 285.75001"
   height="1080"
   width="1080">
  <defs
     id="defs2">
    <marker
       orient="auto"
       refY="0"
       refX="0"
       id="Arrow1Mend"
       style="overflow:visible">
      <path
         id="path5322"
         d="M 0,0 5,-5 -12.5,0 5,5 Z"
         style="fill:#fa8f00;fill-opacity:1;fill-rule:evenodd;stroke:#fa8f00;stroke-width:1.00000003pt;stroke-opacity:1"
         transform="matrix(-0.4,0,0,-0.4,-4,0)" />
    </marker>
    <marker
       orient="auto"
       refY="0"
       refX="0"
       id="Arrow1Mend-4"
       style="overflow:visible">
      <path
         id="path5322-5"
         d="M 0,0 5,-5 -12.5,0 5,5 Z"
         style="fill:#fa8f00;fill-opacity:1;fill-rule:evenodd;stroke:#fa8f00;stroke-width:1.00000003pt;stroke-opacity:1"
         transform="matrix(-0.4,0,0,-0.4,-4,0)" />
    </marker>
  </defs>
  <metadata
     id="metadata5">
    <rdf:RDF>
      <cc:Work
         rdf:about="">
        <dc:format>image/svg+xml</dc:format>
        <dc:type
           rdf:resource="http://purl.org/dc/dcmitype/StillImage" />
        <dc:title></dc:title>
      </cc:Work>
    </rdf:RDF>
  </metadata>
  <rect
     y="-0.0035707499"
     x="0.0084436871"
     height="285.75"
     width="285.75"
     id="rect7624"
     style="fill:#c9ebfb;fill-opacity:1;stroke:none;stroke-width:18.2091732;stroke-linecap:round;stroke-miterlimit:4;stroke-dasharray:none;stroke-opacity:1;paint-order:markers stroke fill" />
  <g
     transform="matrix(1.4552084,0,0,1.4552084,353.40658,-315.79146)"
     id="g152" />
  <g
     transform="matrix(1.4552084,0,0,1.4552084,353.40658,-315.79146)"
     id="g154" />
  <g
     transform="matrix(1.4552084,0,0,1.4552084,353.40658,-315.79146)"
     id="g156" />
  <g
     transform="matrix(1.4552084,0,0,1.4552084,353.40658,-315.79146)"
     id="g158" />
  <g
     transform="matrix(1.4552084,0,0,1.4552084,353.40658,-315.79146)"
     id="g160" />
  <g
     transform="matrix(1.4552084,0,0,1.4552084,353.40658,-315.79146)"
     id="g162" />
  <g
     transform="matrix(1.4552084,0,0,1.4552084,353.40658,-315.79146)"
     id="g164" />
  <g
     transform="matrix(1.4552084,0,0,1.4552084,353.40658,-315.79146)"
     id="g166" />
  <g
     transform="matrix(1.4552084,0,0,1.4552084,353.40658,-315.79146)"
     id="g168" />
  <g
     transform="matrix(1.4552084,0,0,1.4552084,353.40658,-315.79146)"
     id="g170" />
  <g
     transform="matrix(1.4552084,0,0,1.4552084,353.40658,-315.79146)"
     id="g172" />
  <g
     transform="matrix(1.4552084,0,0,1.4552084,353.40658,-315.79146)"
     id="g174" />
  <g
     transform="matrix(1.4552084,0,0,1.4552084,353.40658,-315.79146)"
     id="g176" />
  <g
     transform="matrix(1.4552084,0,0,1.4552084,353.40658,-315.79146)"
     id="g178" />
  <g
     transform="matrix(1.4552084,0,0,1.4552084,353.40658,-315.79146)"
     id="g180" />
  <flowRoot
     transform="matrix(1.4552084,0,0,1.4552084,353.40658,-315.79146)"
     xml:space="preserve"
     id="flowRoot1041"
     style="font-style:normal;font-variant:normal;font-weight:500;font-stretch:normal;font-size:40px;line-height:1.25;font-family:Roboto;-inkscape-font-specification:'Roboto Medium';letter-spacing:0px;word-spacing:0px;fill:#000000;fill-opacity:1;stroke:none"><flowRegion
       id="flowRegion1043"><rect
         id="rect1045"
         width="3.9448078"
         height="40.43428"
         x="1147.9391"
         y="550.21259" /></flowRegion><flowPara
       id="flowPara1047" /></flowRoot>  <g
     style="fill:#294270;fill-opacity:1"
     id="g4216"
     transform="matrix(2.1166666,0,0,2.1166666,31.40505,30.017413)">
    <path
       style="fill:#294270;fill-opacity:1"
       id="path4218"
       d="M 108,38.182 C 108,21.664 85.718,8.727 57.272,8.727 29.418,8.727 7.487,21.135 6.587,37.159 l -0.042,0 0,18.241 -4.289,1.035 C 1.817,56.469 1.381,56.623 1,56.904 0.337,57.389 -0.009,58.147 0,58.912 l 0,29.453 c 0,0.879 0.47,1.689 1.232,2.127 0.625,0.358 15.427,8.781 26.994,8.781 l 0.001,0 c 0.001,0 0.001,0 0.001,0 0.218,0 0.43,-0.038 0.636,-0.094 0.051,-0.016 0.098,-0.028 0.148,-0.047 0.198,-0.065 0.388,-0.15 0.563,-0.266 0.005,-0.004 0.01,-0.004 0.015,-0.009 0.135,-0.09 0.262,-0.192 0.378,-0.31 0.036,-0.036 0.063,-0.078 0.096,-0.117 0.037,-0.041 0.07,-0.083 0.104,-0.127 0.135,-0.176 0.253,-0.363 0.335,-0.566 0,-0.003 0.003,-0.005 0.003,-0.008 L 49.733,49.728 c 0.084,-0.209 0.126,-0.424 0.15,-0.639 0.363,-0.724 0.361,-1.594 -0.061,-2.324 -0.544,-0.938 -1.641,-1.411 -2.699,-1.154 l -35.669,8.603 0,-7.154 42.808,-5.981 -4.547,25.464 -0.026,0 10e-4,0.14 -0.118,0.66 0.121,0.006 0.118,28.373 2.308,0.13 c 1.645,0.091 3.305,0.137 4.936,0.137 28.444,0 50.727,-12.937 50.727,-29.453 l 0,-25.408 -0.024,0 C 107.916,40.16 108,39.179 108,38.182 Z M 4.909,86.906 l 0,-22.268 c 4.081,3.116 10.978,6.616 20.732,5.75 L 25.76,94.225 C 17.703,93.354 8.239,88.668 4.909,86.906 Z M 40.246,52.322 28.208,65.078 C 17.804,67.028 10.864,63.188 7.287,60.27 l 32.959,-7.948 z m 15.142,10.383 4.896,-27.422 -48.244,6.74 c -0.388,-1.273 -0.585,-2.561 -0.585,-3.842 0,-13.305 20.982,-24.546 45.818,-24.546 24.836,0 45.817,11.241 45.817,24.546 10e-4,13.641 -22.002,25.106 -47.702,24.524 z" />
  </g>
  <g
     id="g4220"
     transform="matrix(2.1166666,0,0,2.1166666,337.33047,15.256141)" />
  <g
     id="g4222"
     transform="matrix(2.1166666,0,0,2.1166666,337.33047,15.256141)" />
  <g
     id="g4224"
     transform="matrix(2.1166666,0,0,2.1166666,337.33047,15.256141)" />
  <g
     id="g4226"
     transform="matrix(2.1166666,0,0,2.1166666,337.33047,15.256141)" />
  <g
     id="g4228"
     transform="matrix(2.1166666,0,0,2.1166666,337.33047,15.256141)" />
  <g
     id="g4230"
     transform="matrix(2.1166666,0,0,2.1166666,337.33047,15.256141)" />
  <g
     id="g4232"
     transform="matrix(2.1166666,0,0,2.1166666,337.33047,15.256141)" />
  <g
     id="g4234"
     transform="matrix(2.1166666,0,0,2.1166666,337.33047,15.256141)" />
  <g
     id="g4236"
     transform="matrix(2.1166666,0,0,2.1166666,337.33047,15.256141)" />
  <g
     id="g4238"
     transform="matrix(2.1166666,0,0,2.1166666,337.33047,15.256141)" />
  <g
     id="g4240"
     transform="matrix(2.1166666,0,0,2.1166666,337.33047,15.256141)" />
  <g
     id="g4242"
     transform="matrix(2.1166666,0,0,2.1166666,337.33047,15.256141)" />
  <g
     id="g4244"
     transform="matrix(2.1166666,0,0,2.1166666,337.33047,15.256141)" />
  <g
     id="g4246"
     transform="matrix(2.1166666,0,0,2.1166666,337.33047,15.256141)" />
  <g
     id="g4248"
     transform="matrix(2.1166666,0,0,2.1166666,337.33047,15.256141)" />
</svg>
